<svg xmlns="http://www.w3.org/2000/svg" shape-rendering="geometricPrecision" text-rendering="geometricPrecision" image-rendering="optimizeQuality" fill-rule="evenodd" clip-rule="evenodd" viewBox="0 0 360 360"><path fill="#F5C800" d="M183.21.03c9.35-.4 16.72 2.86 24.15 7.59 9.44 5.98 20.06 17.8 33.17 25.3 18.45 10.54 52.61-4 70.11 21.99 10.21 15.16 10.69 27.04 11.45 38.78.82 12.67 3.04 24.32 16 41.47 21.47 28.38 25.94 47.27 14.88 66.96-7.54 13.42-23.41 20.88-27.09 29.38-7.81 18.09.83 31.72-9.87 52.81-7.43 14.62-18.89 24.26-34.16 29.18-12.88 4.14-25.8-1.85-36.1 2.48-18.12 7.61-31.48 25.3-45.89 29.77-5.57 1.73-11.11 2.58-16.65 2.54-5.53.04-11.08-.81-16.64-2.54-14.42-4.47-27.78-22.16-45.9-29.77-10.3-4.33-23.22 1.66-36.1-2.48-15.26-4.92-26.73-14.56-34.16-29.18-10.7-21.09-2.06-34.72-9.87-52.81-3.68-8.5-19.55-15.96-27.09-29.38-11.06-19.69-6.58-38.58 14.88-66.96 12.96-17.15 15.18-28.8 16-41.47.76-11.74 1.24-23.62 11.45-38.78 17.5-25.99 51.66-11.45 70.11-21.99 13.12-7.5 23.73-19.32 33.17-25.3 7.44-4.73 14.81-7.99 24.15-7.59z"/></svg>